<?xml version="1.0" standalone="no"?>
<!DOCTYPE svg PUBLIC "-//W3C//DTD SVG 20010904//EN"
 "http://www.w3.org/TR/2001/REC-SVG-20010904/DTD/svg10.dtd">
<svg version="1.0" xmlns="http://www.w3.org/2000/svg"
 width="2000.000000pt" height="2000.000000pt" viewBox="0 0 2000.000000 2000.000000"
 preserveAspectRatio="xMidYMid meet">
<metadata>
Created by potrace 1.15, written by Peter Selinger 2001-2017
</metadata>
<g transform="translate(0.000000,2000.000000) scale(0.100000,-0.100000)"
fill="#000000" stroke="none">
<path d="M8537 19523 c-14 -148 23 -350 88 -487 89 -188 308 -417 660 -692
348 -271 543 -448 513 -465 -50 -26 -939 -230 -1459 -333 -751 -150 -2058
-372 -2751 -467 -49 -7 -88 -15 -88 -18 0 -3 295 -152 656 -330 l655 -325 57
16 c885 245 1701 446 2727 673 549 121 692 151 698 145 2 -3 52 -90 112 -195
119 -208 313 -525 321 -525 23 0 179 152 302 295 138 160 196 243 198 284 2
50 26 313 29 327 5 17 744 159 1340 258 547 91 850 128 1065 129 135 1 152 -1
254 -31 198 -58 328 -67 384 -25 40 30 132 170 172 263 35 80 38 94 44 220 4
74 3 140 -1 146 -12 16 -359 147 -623 234 -284 95 -503 155 -613 171 -78 10
-89 9 -217 -21 -413 -96 -1119 -293 -1634 -456 -60 -19 -112 -34 -116 -34 -4
0 -10 74 -13 166 -6 193 2 175 -157 351 -158 176 -396 365 -645 514 -66 39
-138 86 -160 104 -22 17 -47 34 -56 38 -10 3 -100 11 -200 17 -912 56 -1316
86 -1448 110 -90 16 -87 18 -94 -57z"/>
<path d="M11955 17409 c-22 -4 -85 -8 -141 -8 -132 -1 -295 -17 -419 -42 -91
-18 -145 -39 -102 -39 21 0 140 -111 178 -167 93 -135 136 -290 118 -421 -14
-97 -64 -191 -199 -372 -261 -349 -545 -684 -1165 -1370 -214 -236 -411 -462
-556 -635 -117 -141 -121 -144 -172 -155 -29 -6 -223 -48 -432 -94 -209 -46
-382 -82 -384 -80 -2 2 10 36 27 76 115 279 147 862 67 1252 -27 136 -42 162
-146 266 -205 203 -529 341 -891 381 -125 14 -455 6 -616 -15 -115 -15 -344
-54 -349 -60 -2 -2 27 -22 64 -46 95 -61 228 -198 292 -300 70 -114 196 -371
271 -555 110 -270 292 -608 472 -880 l53 -80 150 -27 c298 -53 340 -61 347
-67 12 -10 -913 -207 -1702 -362 -1301 -256 -3098 -563 -4380 -749 -118 -17
-225 -34 -238 -38 -20 -7 37 -62 504 -487 290 -264 541 -492 559 -507 l32 -27
164 55 c1469 493 3337 1041 4734 1387 1669 415 3764 809 5165 972 788 91 1811
149 2241 126 234 -12 283 -20 434 -66 626 -191 1286 -297 1591 -254 181 25
235 65 295 217 38 98 42 119 52 247 5 77 7 169 3 205 l-7 66 -122 73 c-951
573 -1545 879 -1817 937 -59 12 -74 11 -165 -7 -227 -46 -390 -106 -594 -218
-300 -164 -430 -204 -1091 -331 -874 -168 -1769 -361 -2900 -624 -824 -191
-1292 -298 -1295 -294 -2 2 62 32 143 67 649 281 1366 703 1992 1172 494 369
1253 1003 1280 1068 13 32 7 78 -17 124 -19 37 -114 130 -189 183 -181 129
-677 376 -956 475 -114 41 -119 42 -183 28z"/>
<path d="M12860 13525 c-50 -23 -87 -61 -121 -126 -38 -71 -70 -102 -189 -182
-114 -76 -165 -136 -155 -181 3 -17 9 -52 12 -77 l5 -47 -108 -35 c-60 -20
-206 -63 -324 -97 -541 -154 -960 -242 -1910 -400 -485 -81 -797 -137 -1195
-216 -367 -73 -359 -73 -595 -33 -290 49 -579 66 -860 50 -107 -6 -271 -16
-365 -21 -401 -23 -526 -33 -564 -44 l-40 -11 56 -55 c94 -93 404 -522 466
-645 58 -117 120 -363 152 -607 60 -466 91 -1257 66 -1694 -8 -138 -12 -156
-39 -210 -73 -147 -148 -481 -123 -548 10 -25 15 -28 40 -23 44 9 122 -34 232
-128 59 -51 190 -121 294 -158 122 -43 201 -52 456 -51 l236 0 54 40 c30 21
123 92 207 156 252 193 461 320 551 334 27 4 38 10 34 20 -7 19 98 45 533 129
545 106 1060 184 1820 279 607 75 574 72 574 49 0 -26 37 -59 85 -77 l40 -15
-54 0 -55 -1 26 -27 c42 -47 82 -111 170 -278 98 -186 135 -245 231 -373 204
-271 365 -362 679 -387 l88 -7 103 159 c57 87 173 268 257 403 84 135 193 307
242 382 l89 137 29 196 c103 685 309 1626 470 2149 138 445 349 993 544 1410
25 55 46 100 46 101 0 2 -17 6 -37 10 -65 11 -321 101 -463 160 -74 31 -256
115 -404 187 -604 292 -911 403 -1146 414 -83 4 -112 1 -140 -11z m-311 -1300
c-18 -399 -61 -770 -145 -1265 -114 -669 -166 -1040 -180 -1293 -7 -109 -9
-119 -29 -127 -29 -11 -277 -50 -660 -105 -794 -113 -1825 -283 -2383 -394
-132 -26 -195 -35 -198 -27 -61 173 -353 1073 -351 1081 9 20 630 172 1067
259 589 118 1136 196 1374 196 50 0 126 -7 169 -15 106 -20 193 -19 237 3 48
23 114 125 162 247 23 61 27 85 27 182 l1 112 -100 57 c-133 75 -284 133 -364
141 -85 8 -135 -10 -242 -88 -240 -173 -584 -287 -1429 -473 -187 -41 -484
-105 -660 -141 -176 -36 -330 -67 -341 -70 -20 -4 -24 3 -44 83 -71 284 -102
523 -98 757 l3 159 95 39 c185 75 467 169 595 198 167 38 551 111 1030 194
824 144 1732 324 2360 469 55 12 103 20 106 17 4 -3 3 -91 -2 -196z"/>
<path d="M10840 8604 c-129 -25 -225 -65 -419 -179 -182 -105 -333 -155 -478
-155 l-82 0 64 -84 c79 -105 135 -201 179 -306 32 -75 35 -93 45 -248 16 -244
33 -604 29 -607 -2 -1 -120 -19 -263 -39 -1480 -210 -3230 -503 -4800 -806
-732 -141 -1045 -204 -1045 -211 0 -4 204 -121 453 -262 l452 -255 205 49
c1570 376 3194 659 4720 822 l305 33 7 -40 c6 -39 16 -369 39 -1331 6 -236 14
-1053 19 -1815 8 -1473 8 -1457 60 -1775 37 -229 111 -518 191 -751 39 -113
90 -227 107 -238 11 -6 157 103 249 186 205 185 416 477 595 823 118 231 175
369 187 461 22 161 30 582 36 1834 5 1275 21 2507 33 2690 l7 95 301 17 c383
21 1082 54 1469 70 421 17 1404 17 1565 0 69 -7 190 -28 270 -47 234 -55 273
-60 470 -60 148 1 208 5 302 23 188 35 319 82 394 139 47 35 95 137 105 225
10 91 11 239 1 254 -8 11 -423 254 -702 410 -313 175 -671 341 -815 378 -84
22 -108 20 -226 -19 -396 -135 -1019 -279 -1804 -419 -447 -79 -1302 -212
-1311 -203 -12 11 34 557 61 721 7 44 12 81 11 82 0 0 -39 24 -86 52 -47 27
-114 72 -150 99 -36 28 -113 86 -171 130 -241 182 -459 279 -579 257z"/>
</g>
</svg>
